<svg width="97" height="105" viewBox="0 0 97 105" fill="none" xmlns="http://www.w3.org/2000/svg">
<path d="M84.1736 86.8384H12.8264C5.78971 86.8384 0 81.1485 0 74.0361V28.961C0 24.5157 2.31589 20.426 6.14601 18.0256L41.0624 1.66698C45.7833 -0.555659 51.2167 -0.555659 55.9376 1.66698L90.854 18.0256C94.6841 20.3371 97 24.5157 97 28.961V74.125C97 81.1485 91.2994 86.8384 84.1736 86.8384Z" fill="#2F7BFB"/>
<path d="M48.6399 46.351L12.017 86.4075H84.6908L48.6399 46.351Z" fill="#2972ED"/>
<mask id="mask0_760_896" style="mask-type:alpha" maskUnits="userSpaceOnUse" x="0" y="0" width="97" height="87">
<path d="M84.1736 86.8384H12.8264C5.78971 86.8384 0 81.1485 0 74.0361V28.961C0 24.5157 2.31589 20.426 6.14601 18.0256L41.0624 1.66698C45.7833 -0.555659 51.2167 -0.555659 55.9376 1.66698L90.854 18.0256C94.6841 20.3371 97 24.5157 97 28.961V74.125C97 81.1485 91.2994 86.8384 84.1736 86.8384Z" fill="#2F7BFB"/>
</mask>
<g mask="url(#mask0_760_896)">
<path d="M48.0677 46.9233L-6.34193e-05 28.6117L-5.72241 9.15575L13.7336 -9.728L52.6455 -16.5948L96.7076 5.72234V28.6117L48.0677 46.9233Z" fill="#246ADF"/>
</g>
<mask id="mask1_760_896" style="mask-type:alpha" maskUnits="userSpaceOnUse" x="18" y="16" width="63" height="59">
<rect x="18.3115" y="16.0226" width="61.8014" height="58.368" fill="#D9D9D9"/>
</mask>
<g mask="url(#mask1_760_896)">
<path d="M48.0677 47.4955L-6.34193e-05 29.184L-5.72241 9.72799L13.7336 -9.15576L52.6455 -16.0226L96.7076 6.29458V29.184L48.0677 47.4955Z" fill="white"/>
</g>
<path d="M49.623 28.2737C49.3615 28.2136 49.0731 28.1835 48.7579 28.1835C48.2549 28.1835 47.7922 28.2904 47.3697 28.5043C46.9539 28.7115 46.5951 28.9856 46.2933 29.3265C45.9915 29.6674 45.7535 30.0585 45.5791 30.4996C45.4114 30.9408 45.3276 31.392 45.3276 31.8532C45.3276 32.3345 45.4383 32.7222 45.6596 33.0163C45.8809 33.3037 46.2095 33.4475 46.6454 33.4475C46.8533 33.4475 47.0612 33.414 47.2691 33.3472C47.4837 33.2803 47.6883 33.1634 47.8827 32.9963C48.0839 32.8292 48.2684 32.6019 48.436 32.3144C48.6037 32.027 48.7445 31.6661 48.8585 31.2316L49.623 28.2737ZM50.2467 31.0711C50.1126 31.5792 50.0489 31.9936 50.0556 32.3144C50.0623 32.6286 50.1126 32.8759 50.2065 33.0564C50.3071 33.2369 50.4446 33.3606 50.6189 33.4274C50.7933 33.4876 50.9844 33.5176 51.1923 33.5176C51.521 33.5176 51.8328 33.4241 52.1279 33.2369C52.423 33.0497 52.6812 32.7857 52.9025 32.4448C53.1305 32.1039 53.3082 31.6961 53.4356 31.2215C53.5698 30.7403 53.6368 30.2089 53.6368 29.6273C53.6368 28.7049 53.4893 27.896 53.1942 27.2009C52.8991 26.5057 52.49 25.9275 51.9669 25.4663C51.4505 24.9983 50.8369 24.6508 50.126 24.4235C49.4219 24.1895 48.6607 24.0725 47.8425 24.0725C46.9438 24.0725 46.1022 24.243 45.3176 24.5839C44.5329 24.9248 43.8489 25.3961 43.2654 25.9977C42.6819 26.5993 42.2192 27.3112 41.8772 28.1333C41.5419 28.9555 41.3742 29.8512 41.3742 30.8205C41.3742 31.9568 41.5519 32.9562 41.9074 33.8184C42.2695 34.6741 42.7591 35.3926 43.3761 35.9742C43.9997 36.5557 44.7307 36.9936 45.569 37.2877C46.4073 37.5818 47.306 37.7288 48.265 37.7288C49.2844 37.7288 50.183 37.6185 50.961 37.398C51.7456 37.1774 52.423 36.8966 52.993 36.5557C53.1271 36.4755 53.2445 36.4521 53.3451 36.4855C53.4457 36.5123 53.5195 36.5858 53.5664 36.7061L53.828 37.3679C53.1037 37.8492 52.2821 38.2268 51.3634 38.5009C50.4513 38.7749 49.4185 38.912 48.265 38.912C47.0981 38.912 46.015 38.7282 45.0158 38.3605C44.0165 37.9929 43.148 37.4615 42.4103 36.7663C41.6793 36.0778 41.1026 35.2322 40.6801 34.2295C40.2643 33.2269 40.0564 32.0905 40.0564 30.8205C40.0564 30.0919 40.1469 29.39 40.328 28.7149C40.5158 28.0398 40.7773 27.4114 41.1127 26.8299C41.448 26.2416 41.8504 25.7069 42.3198 25.2256C42.7892 24.7376 43.3123 24.3232 43.8891 23.9823C44.4658 23.6347 45.0862 23.3673 45.7501 23.1802C46.4208 22.9863 47.1182 22.8894 47.8425 22.8894C48.4595 22.8894 49.0631 22.9562 49.6532 23.0899C50.2434 23.2236 50.8 23.4208 51.3231 23.6815C51.8529 23.9422 52.3358 24.2664 52.7717 24.6541C53.2143 25.0351 53.5966 25.4763 53.9185 25.9776C54.2404 26.4723 54.4885 27.0271 54.6629 27.642C54.844 28.2503 54.9345 28.9121 54.9345 29.6273C54.9345 30.3492 54.8306 31.0177 54.6227 31.6326C54.4215 32.2409 54.1398 32.769 53.7777 33.2168C53.4222 33.6647 52.9997 34.0156 52.5101 34.2696C52.0206 34.5237 51.4941 34.6507 50.9308 34.6507C50.4211 34.6507 49.9986 34.527 49.6633 34.2797C49.3347 34.0257 49.1234 33.6413 49.0295 33.1266C48.6473 33.6614 48.2281 34.0457 47.7721 34.2797C47.3161 34.5136 46.8231 34.6306 46.2933 34.6306C45.8977 34.6306 45.5489 34.5638 45.2471 34.4301C44.9521 34.2897 44.7073 34.0992 44.5128 33.8586C44.3183 33.6112 44.1708 33.3205 44.0702 32.9862C43.9763 32.652 43.9293 32.2911 43.9293 31.9034C43.9293 31.3352 44.0366 30.7637 44.2512 30.1888C44.4725 29.6073 44.7978 29.0859 45.227 28.6246C45.6562 28.1567 46.1894 27.7757 46.8265 27.4816C47.4636 27.1875 48.2013 27.0404 49.0396 27.0404C49.4889 27.0404 49.8846 27.0772 50.2266 27.1507C50.5686 27.2176 50.8906 27.3178 51.1923 27.4515L50.2467 31.0711Z" fill="black"/>
<path opacity="0.1" d="M47.0063 104.059C63.4861 104.059 76.8456 102.029 76.8456 99.5252C76.8456 97.021 63.4861 94.991 47.0063 94.991C30.5265 94.991 17.167 97.021 17.167 99.5252C17.167 102.029 30.5265 104.059 47.0063 104.059Z" fill="#2F7BFB"/>
</svg>
