<?xml version="1.0" standalone="no"?>
<!DOCTYPE svg PUBLIC "-//W3C//DTD SVG 20010904//EN"
 "http://www.w3.org/TR/2001/REC-SVG-20010904/DTD/svg10.dtd">
<svg version="1.0" xmlns="http://www.w3.org/2000/svg"
 width="1200.000000pt" height="1200.000000pt" viewBox="0 0 1200.000000 1200.000000"
 preserveAspectRatio="xMidYMid meet">

<g transform="translate(0.000000,1200.000000) scale(0.100000,-0.100000)"
fill="#000000" stroke="none">
<path d="M610 6000 l0 -1420 80 0 80 0 0 1420 0 1420 -80 0 -80 0 0 -1420z"/>
<path d="M830 6000 l0 -1420 25 0 25 0 0 1420 0 1420 -25 0 -25 0 0 -1420z"/>
<path d="M1060 6000 l0 -1420 25 0 25 0 0 1420 0 1420 -25 0 -25 0 0 -1420z"/>
<path d="M1170 6000 l0 -1420 25 0 25 0 0 1420 0 1420 -25 0 -25 0 0 -1420z"/>
<path d="M1280 6000 l0 -1420 85 0 85 0 0 1420 0 1420 -85 0 -85 0 0 -1420z"/>
<path d="M1510 6000 l0 -1420 25 0 25 0 0 1420 0 1420 -25 0 -25 0 0 -1420z"/>
<path d="M1620 6000 l0 -1420 85 0 85 0 0 1420 0 1420 -85 0 -85 0 0 -1420z"/>
<path d="M1960 6000 l0 -1420 30 0 30 0 0 1420 0 1420 -30 0 -30 0 0 -1420z"/>
<path d="M2080 6000 l0 -1420 25 0 25 0 0 1420 0 1420 -25 0 -25 0 0 -1420z"/>
<path d="M2190 6000 l0 -1420 80 0 80 0 0 1420 0 1420 -80 0 -80 0 0 -1420z"/>
<path d="M2410 6000 l0 -1420 85 0 85 0 0 1420 0 1420 -85 0 -85 0 0 -1420z"/>
<path d="M2640 6000 l0 -1420 85 0 85 0 0 1420 0 1420 -85 0 -85 0 0 -1420z"/>
<path d="M2980 6000 l0 -1420 25 0 25 0 0 1420 0 1420 -25 0 -25 0 0 -1420z"/>
<path d="M3090 6000 l0 -1420 25 0 25 0 0 1420 0 1420 -25 0 -25 0 0 -1420z"/>
<path d="M3210 6000 l0 -1420 25 0 25 0 0 1420 0 1420 -25 0 -25 0 0 -1420z"/>
<path d="M3320 6000 l0 -1420 25 0 25 0 0 1420 0 1420 -25 0 -25 0 0 -1420z"/>
<path d="M3430 6000 l0 -1420 25 0 25 0 0 1420 0 1420 -25 0 -25 0 0 -1420z"/>
<path d="M3660 6000 l0 -1420 80 0 80 0 0 1420 0 1420 -80 0 -80 0 0 -1420z"/>
<path d="M3880 6000 l0 -1420 30 0 30 0 0 1420 0 1420 -30 0 -30 0 0 -1420z"/>
<path d="M4000 6000 l0 -1420 80 0 80 0 0 1420 0 1420 -80 0 -80 0 0 -1420z"/>
<path d="M4220 6000 l0 -1420 85 0 85 0 0 1420 0 1420 -85 0 -85 0 0 -1420z"/>
<path d="M4450 6000 l0 -1420 25 0 25 0 0 1420 0 1420 -25 0 -25 0 0 -1420z"/>
<path d="M4670 6000 l0 -1420 30 0 30 0 0 1420 0 1420 -30 0 -30 0 0 -1420z"/>
<path d="M4790 6000 l0 -1420 25 0 25 0 0 1420 0 1420 -25 0 -25 0 0 -1420z"/>
<path d="M4900 6000 l0 -1420 85 0 85 0 0 1420 0 1420 -85 0 -85 0 0 -1420z"/>
<path d="M5130 6000 l0 -1420 25 0 25 0 0 1420 0 1420 -25 0 -25 0 0 -1420z"/>
<path d="M5240 6000 l0 -1420 80 0 80 0 0 1420 0 1420 -80 0 -80 0 0 -1420z"/>
<path d="M5580 6000 l0 -1420 25 0 25 0 0 1420 0 1420 -25 0 -25 0 0 -1420z"/>
<path d="M5690 6000 l0 -1420 25 0 25 0 0 1420 0 1420 -25 0 -25 0 0 -1420z"/>
<path d="M5800 6000 l0 -1420 85 0 85 0 0 1420 0 1420 -85 0 -85 0 0 -1420z"/>
<path d="M6030 6000 l0 -1420 85 0 85 0 0 1420 0 1420 -85 0 -85 0 0 -1420z"/>
<path d="M6260 6000 l0 -1420 80 0 80 0 0 1420 0 1420 -80 0 -80 0 0 -1420z"/>
<path d="M6600 6000 l0 -1420 25 0 25 0 0 1420 0 1420 -25 0 -25 0 0 -1420z"/>
<path d="M6710 6000 l0 -1420 25 0 25 0 0 1420 0 1420 -25 0 -25 0 0 -1420z"/>
<path d="M6820 6000 l0 -1420 25 0 25 0 0 1420 0 1420 -25 0 -25 0 0 -1420z"/>
<path d="M6930 6000 l0 -1420 30 0 30 0 0 1420 0 1420 -30 0 -30 0 0 -1420z"/>
<path d="M7050 6000 l0 -1420 25 0 25 0 0 1420 0 1420 -25 0 -25 0 0 -1420z"/>
<path d="M7270 6000 l0 -1420 85 0 85 0 0 1420 0 1420 -85 0 -85 0 0 -1420z"/>
<path d="M7500 6000 l0 -1420 25 0 25 0 0 1420 0 1420 -25 0 -25 0 0 -1420z"/>
<path d="M7610 6000 l0 -1420 85 0 85 0 0 1420 0 1420 -85 0 -85 0 0 -1420z"/>
<path d="M7840 6000 l0 -1420 80 0 80 0 0 1420 0 1420 -80 0 -80 0 0 -1420z"/>
<path d="M8060 6000 l0 -1420 30 0 30 0 0 1420 0 1420 -30 0 -30 0 0 -1420z"/>
<path d="M8290 6000 l0 -1420 25 0 25 0 0 1420 0 1420 -25 0 -25 0 0 -1420z"/>
<path d="M8400 6000 l0 -1420 30 0 30 0 0 1420 0 1420 -30 0 -30 0 0 -1420z"/>
<path d="M8520 6000 l0 -1420 80 0 80 0 0 1420 0 1420 -80 0 -80 0 0 -1420z"/>
<path d="M8740 6000 l0 -1420 25 0 25 0 0 1420 0 1420 -25 0 -25 0 0 -1420z"/>
<path d="M8850 6000 l0 -1420 85 0 85 0 0 1420 0 1420 -85 0 -85 0 0 -1420z"/>
<path d="M9190 6000 l0 -1420 30 0 30 0 0 1420 0 1420 -30 0 -30 0 0 -1420z"/>
<path d="M9310 6000 l0 -1420 25 0 25 0 0 1420 0 1420 -25 0 -25 0 0 -1420z"/>
<path d="M9420 6000 l0 -1420 85 0 85 0 0 1420 0 1420 -85 0 -85 0 0 -1420z"/>
<path d="M9650 6000 l0 -1420 80 0 80 0 0 1420 0 1420 -80 0 -80 0 0 -1420z"/>
<path d="M9870 6000 l0 -1420 85 0 85 0 0 1420 0 1420 -85 0 -85 0 0 -1420z"/>
<path d="M10210 6000 l0 -1420 25 0 25 0 0 1420 0 1420 -25 0 -25 0 0 -1420z"/>
<path d="M10320 6000 l0 -1420 30 0 30 0 0 1420 0 1420 -30 0 -30 0 0 -1420z"/>
<path d="M10440 6000 l0 -1420 25 0 25 0 0 1420 0 1420 -25 0 -25 0 0 -1420z"/>
<path d="M10550 6000 l0 -1420 25 0 25 0 0 1420 0 1420 -25 0 -25 0 0 -1420z"/>
<path d="M10660 6000 l0 -1420 25 0 25 0 0 1420 0 1420 -25 0 -25 0 0 -1420z"/>
<path d="M10890 6000 l0 -1420 80 0 80 0 0 1420 0 1420 -80 0 -80 0 0 -1420z"/>
<path d="M11120 6000 l0 -1420 25 0 25 0 0 1420 0 1420 -25 0 -25 0 0 -1420z"/>
<path d="M11230 6000 l0 -1420 80 0 80 0 0 1420 0 1420 -80 0 -80 0 0 -1420z"/>
</g>
</svg>
